<svg width="171" height="43" viewBox="0 0 171 43" fill="none" xmlns="http://www.w3.org/2000/svg">
    <path d="M30.375 31.3125C29.3125 34.8125 27.5729 37.5938 25.1562 39.6562C22.7396 41.6979 19.6979 42.7188 16.0312 42.7188C13.1771 42.7188 10.7604 42.1354 8.78125 40.9688C6.80208 39.7812 5.17708 38.2188 3.90625 36.2812C2.65625 34.3438 1.75 32.1042 1.1875 29.5625C0.645833 27.0208 0.375 24.3854 0.375 21.6562C0.375 18.9271 0.645833 16.2917 1.1875 13.75C1.75 11.2083 2.65625 8.95833 3.90625 7C5.17708 5.04167 6.80208 3.47917 8.78125 2.3125C10.7604 1.125 13.1771 0.53125 16.0312 0.53125C18.5521 0.53125 20.7083 0.979167 22.5 1.875C24.2917 2.77083 25.6146 4.13542 26.4688 5.96875V1.21875H30.125V14.5938H26.4688C26.4688 13.1562 26.1875 11.8021 25.625 10.5312C25.0833 9.23958 24.3438 8.125 23.4062 7.1875C22.4688 6.25 21.3542 5.52083 20.0625 5C18.7917 4.45833 17.4479 4.1875 16.0312 4.1875C13.8229 4.1875 11.9896 4.70833 10.5312 5.75C9.09375 6.79167 7.9375 8.15625 7.0625 9.84375C6.1875 11.5312 5.5625 13.4062 5.1875 15.4688C4.83333 17.5312 4.65625 19.5938 4.65625 21.6562C4.65625 23.6979 4.83333 25.7604 5.1875 27.8438C5.5625 29.9062 6.1875 31.7708 7.0625 33.4375C7.9375 35.0833 9.09375 36.4375 10.5312 37.5C11.9896 38.5417 13.8229 39.0625 16.0312 39.0625C21.1146 39.0625 24.6562 35.9896 26.6562 29.8438L30.375 31.3125ZM63.4688 16.9688C61.9271 16.1979 60.0938 15.8125 57.9688 15.8125C56.2188 15.8125 54.6562 16.1875 53.2812 16.9375C51.9062 17.6875 50.7396 18.6771 49.7812 19.9062C48.8229 21.1146 48.0833 22.5104 47.5625 24.0938C47.0625 25.6562 46.8125 27.2708 46.8125 28.9375V38.3438H53.4062V42H35.9375V38.3438H42.5312V16.5312H35.9375V12.875H46.8125V20.1875C48.7708 14.8542 52.4896 12.1875 57.9688 12.1875C59.4479 12.1875 60.7292 12.2812 61.8125 12.4688C62.9167 12.6562 63.9375 12.9896 64.875 13.4688L63.4688 16.9688ZM75.1562 28.9375C75.4688 32.0208 76.5938 34.4792 78.5312 36.3125C80.4688 38.1458 82.9896 39.0625 86.0938 39.0625C88.2812 39.0625 90.2292 38.6146 91.9375 37.7188C93.6458 36.8229 94.9271 35.7083 95.7812 34.375L98.7812 36.4375C97.3229 38.4792 95.5833 40.0417 93.5625 41.125C91.5417 42.1875 89.0521 42.7188 86.0938 42.7188C83.8438 42.7188 81.7812 42.3438 79.9062 41.5938C78.0312 40.8438 76.4062 39.8021 75.0312 38.4688C73.6771 37.1146 72.625 35.5104 71.875 33.6562C71.125 31.8021 70.75 29.7396 70.75 27.4688C70.75 25.2604 71.0833 23.2292 71.75 21.375C72.4375 19.5 73.4167 17.8854 74.6875 16.5312C75.9792 15.1562 77.5417 14.0938 79.375 13.3438C81.2083 12.5729 83.2604 12.1875 85.5312 12.1875C88.0104 12.1875 90.1771 12.6042 92.0312 13.4375C93.8854 14.2708 95.4271 15.4271 96.6562 16.9062C97.9062 18.3646 98.8229 20.1146 99.4062 22.1562C100.01 24.1979 100.312 26.4583 100.312 28.9375H75.1562ZM95.7812 25.2812C95.3021 22.0938 94.1458 19.7188 92.3125 18.1562C90.4792 16.5938 88.2188 15.8125 85.5312 15.8125C84.1562 15.8125 82.8854 16.0417 81.7188 16.5C80.5521 16.9375 79.5208 17.5729 78.625 18.4062C77.7292 19.2396 76.9792 20.25 76.375 21.4375C75.7708 22.6042 75.3854 23.8854 75.2188 25.2812H95.7812ZM134.156 33.9375C134.156 35.6458 133.729 37.0625 132.875 38.1875C132.021 39.3125 130.917 40.2083 129.562 40.875C128.229 41.5417 126.729 42.0104 125.062 42.2812C123.417 42.5729 121.802 42.7188 120.219 42.7188C117.573 42.7188 114.938 42.3333 112.312 41.5625C109.688 40.7917 107.417 39.7812 105.5 38.5312L107.406 34.8438C109.552 36.1979 111.667 37.2396 113.75 37.9688C115.833 38.6979 117.99 39.0625 120.219 39.0625C126.656 39.0625 129.875 37.3958 129.875 34.0625C129.875 33.25 129.604 32.5938 129.062 32.0938C128.542 31.5729 127.833 31.1562 126.938 30.8438C126.042 30.5104 125.01 30.25 123.844 30.0625C122.698 29.875 121.49 29.6979 120.219 29.5312C118.594 29.3021 116.979 29.0312 115.375 28.7188C113.771 28.4062 112.302 27.9375 110.969 27.3125C109.656 26.6875 108.594 25.8542 107.781 24.8125C106.99 23.7708 106.594 22.3958 106.594 20.6875C106.594 19.2292 106.958 17.9688 107.688 16.9062C108.438 15.8438 109.427 14.9583 110.656 14.25C111.906 13.5417 113.365 13.0208 115.031 12.6875C116.698 12.3542 118.427 12.1875 120.219 12.1875C122.781 12.1875 125.073 12.4896 127.094 13.0938C129.115 13.6771 130.938 14.5208 132.562 15.625L130.844 18.9688C129.177 17.8021 127.49 16.9896 125.781 16.5312C124.073 16.0521 122.219 15.8125 120.219 15.8125C119.323 15.8125 118.323 15.8958 117.219 16.0625C116.135 16.2083 115.125 16.4792 114.188 16.875C113.25 17.25 112.458 17.75 111.812 18.375C111.188 18.9792 110.875 19.75 110.875 20.6875C110.875 21.5 111.135 22.1562 111.656 22.6562C112.198 23.1354 112.917 23.5417 113.812 23.875C114.708 24.1875 115.729 24.4375 116.875 24.625C118.042 24.8125 119.26 24.9896 120.531 25.1562C122.115 25.3854 123.708 25.6562 125.312 25.9688C126.938 26.2812 128.406 26.7396 129.719 27.3438C131.052 27.9479 132.125 28.7708 132.938 29.8125C133.75 30.8542 134.156 32.2292 134.156 33.9375ZM170.188 32.7188C169.854 35.7812 168.646 38.2188 166.562 40.0312C164.5 41.8229 161.917 42.7188 158.812 42.7188C157.104 42.7188 155.542 42.4375 154.125 41.875C152.708 41.3125 151.5 40.5312 150.5 39.5312C149.5 38.5312 148.719 37.3333 148.156 35.9375C147.615 34.5208 147.344 32.9792 147.344 31.3125V16.5312H140.75V12.875H147.344V1.21875H151.625V12.875H164.031V16.5312H151.625V31.3125C151.625 32.375 151.792 33.375 152.125 34.3125C152.479 35.25 152.958 36.0729 153.562 36.7812C154.188 37.4896 154.938 38.0521 155.812 38.4688C156.688 38.8646 157.688 39.0625 158.812 39.0625C160.938 39.0625 162.708 38.4062 164.125 37.0938C165.562 35.7604 166.385 34.0417 166.594 31.9375L170.188 32.7188Z" fill="white"/>
</svg>
